<svg width="168" height="46" viewBox="0 0 168 46" fill="none" xmlns="http://www.w3.org/2000/svg">
<path d="M59.007 16.0347C59.007 17.0569 58.7723 17.9954 58.3031 18.85C57.8339 19.6879 57.1133 20.3666 56.1413 20.8861C55.1693 21.4057 53.9627 21.6654 52.5215 21.6654H49.857V28H45.5585V10.3536H52.5215C53.9292 10.3536 55.1191 10.5966 56.091 11.0826C57.063 11.5686 57.792 12.2389 58.278 13.0936C58.764 13.9483 59.007 14.9286 59.007 16.0347ZM52.1948 18.2467C53.0159 18.2467 53.6276 18.054 54.0298 17.6686C54.432 17.2831 54.6331 16.7385 54.6331 16.0347C54.6331 15.3308 54.432 14.7862 54.0298 14.4007C53.6276 14.0153 53.0159 13.8226 52.1948 13.8226H49.857V18.2467H52.1948ZM65.5432 16.3112C66.046 15.5403 66.6744 14.937 67.4285 14.5013C68.1827 14.0488 69.0206 13.8226 69.9423 13.8226V18.3724H68.7608C67.6883 18.3724 66.8839 18.607 66.3476 19.0763C65.8114 19.5287 65.5432 20.3331 65.5432 21.4894V28H61.2448V13.9734H65.5432V16.3112ZM71.1422 20.9616C71.1422 19.5204 71.4103 18.2551 71.9466 17.1658C72.4996 16.0765 73.2453 15.2386 74.1838 14.6521C75.1222 14.0656 76.1696 13.7723 77.3259 13.7723C78.3147 13.7723 79.1777 13.9734 79.9151 14.3756C80.6692 14.7778 81.2474 15.3057 81.6496 15.9592V13.9734H85.948V28H81.6496V26.0142C81.2306 26.6677 80.6441 27.1956 79.89 27.5978C79.1526 28 78.2895 28.2011 77.3008 28.2011C76.1613 28.2011 75.1222 27.9078 74.1838 27.3213C73.2453 26.718 72.4996 25.8717 71.9466 24.7824C71.4103 23.6764 71.1422 22.4028 71.1422 20.9616ZM81.6496 20.9867C81.6496 19.9142 81.3479 19.0679 80.7446 18.4478C80.1581 17.8278 79.4375 17.5178 78.5828 17.5178C77.7281 17.5178 76.9992 17.8278 76.3959 18.4478C75.8093 19.0511 75.5161 19.889 75.5161 20.9616C75.5161 22.0341 75.8093 22.8888 76.3959 23.5256C76.9992 24.1456 77.7281 24.4556 78.5828 24.4556C79.4375 24.4556 80.1581 24.1456 80.7446 23.5256C81.3479 22.9055 81.6496 22.0592 81.6496 20.9867ZM94.764 28.2011C93.5406 28.2011 92.4513 27.9916 91.4961 27.5727C90.5409 27.1537 89.7868 26.5839 89.2338 25.8633C88.6807 25.126 88.3707 24.3048 88.3037 23.3999H92.5519C92.6022 23.8859 92.8284 24.2797 93.2306 24.5813C93.6328 24.883 94.1271 25.0338 94.7137 25.0338C95.2499 25.0338 95.6605 24.9333 95.9454 24.7322C96.2471 24.5143 96.3979 24.2378 96.3979 23.9026C96.3979 23.5004 96.1884 23.2072 95.7694 23.0228C95.3505 22.8217 94.6718 22.6039 93.7333 22.3692C92.7278 22.1346 91.8899 21.8916 91.2196 21.6403C90.5493 21.3721 89.9711 20.9616 89.4851 20.4085C88.9991 19.8388 88.7561 19.0763 88.7561 18.121C88.7561 17.3167 88.974 16.5877 89.4097 15.9341C89.8622 15.2638 90.5158 14.7359 91.3704 14.3505C92.2419 13.965 93.2725 13.7723 94.4623 13.7723C96.2219 13.7723 97.6045 14.208 98.61 15.0794C99.6322 15.9509 100.219 17.1072 100.37 18.5484H96.3979C96.3308 18.0624 96.113 17.677 95.7443 17.3921C95.3924 17.1072 94.9232 16.9647 94.3366 16.9647C93.8339 16.9647 93.4484 17.0653 93.1803 17.2664C92.9122 17.4507 92.7781 17.7105 92.7781 18.0456C92.7781 18.4478 92.9876 18.7495 93.4065 18.9506C93.8423 19.1517 94.5126 19.3528 95.4175 19.5539C96.4565 19.822 97.3028 20.0901 97.9564 20.3583C98.61 20.6096 99.1797 21.0286 99.6657 21.6151C100.168 22.1849 100.428 22.9558 100.445 23.9278C100.445 24.7489 100.21 25.4863 99.7411 26.1398C99.2887 26.7767 98.6267 27.2794 97.7553 27.6481C96.9006 28.0168 95.9035 28.2011 94.764 28.2011ZM111.697 13.8226C113.306 13.8226 114.596 14.3588 115.568 15.4314C116.54 16.4871 117.026 17.9451 117.026 19.8052V28H112.753V20.3834C112.753 19.4449 112.51 18.716 112.024 18.1965C111.538 17.677 110.884 17.4172 110.063 17.4172C109.242 17.4172 108.588 17.677 108.102 18.1965C107.616 18.716 107.373 19.4449 107.373 20.3834V28H103.075V9.39841H107.373V15.8587C107.809 15.2386 108.404 14.7443 109.158 14.3756C109.912 14.0069 110.758 13.8226 111.697 13.8226ZM119.158 20.9616C119.158 19.5204 119.426 18.2551 119.963 17.1658C120.516 16.0765 121.261 15.2386 122.2 14.6521C123.138 14.0656 124.186 13.7723 125.342 13.7723C126.331 13.7723 127.194 13.9734 127.931 14.3756C128.685 14.7778 129.264 15.3057 129.666 15.9592V13.9734H133.964V28H129.666V26.0142C129.247 26.6677 128.66 27.1956 127.906 27.5978C127.169 28 126.306 28.2011 125.317 28.2011C124.177 28.2011 123.138 27.9078 122.2 27.3213C121.261 26.718 120.516 25.8717 119.963 24.7824C119.426 23.6764 119.158 22.4028 119.158 20.9616ZM129.666 20.9867C129.666 19.9142 129.364 19.0679 128.761 18.4478C128.174 17.8278 127.454 17.5178 126.599 17.5178C125.744 17.5178 125.015 17.8278 124.412 18.4478C123.825 19.0511 123.532 19.889 123.532 20.9616C123.532 22.0341 123.825 22.8888 124.412 23.5256C125.015 24.1456 125.744 24.4556 126.599 24.4556C127.454 24.4556 128.174 24.1456 128.761 23.5256C129.364 22.9055 129.666 22.0592 129.666 20.9867ZM145.621 13.8226C147.263 13.8226 148.57 14.3588 149.542 15.4314C150.531 16.4871 151.025 17.9451 151.025 19.8052V28H146.752V20.3834C146.752 19.4449 146.509 18.716 146.023 18.1965C145.537 17.677 144.883 17.4172 144.062 17.4172C143.241 17.4172 142.587 17.677 142.101 18.1965C141.615 18.716 141.372 19.4449 141.372 20.3834V28H137.074V13.9734H141.372V15.8336C141.808 15.2135 142.395 14.7275 143.132 14.3756C143.869 14.0069 144.699 13.8226 145.621 13.8226ZM161.83 24.3551V28H159.643C158.084 28 156.869 27.6229 155.998 26.8688C155.127 26.0979 154.691 24.8495 154.691 23.1234V17.5429H152.982V13.9734H154.691V10.5547H158.989V13.9734H161.805V17.5429H158.989V23.1736C158.989 23.5926 159.09 23.8942 159.291 24.0786C159.492 24.2629 159.827 24.3551 160.296 24.3551H161.83Z" fill="white"/>
<path d="M104.191 38.3755C104.191 37.6693 104.35 37.0358 104.669 36.475C104.987 35.9073 105.42 35.4641 105.967 35.1457C106.521 34.8272 107.133 34.6679 107.805 34.6679C108.594 34.6679 109.283 34.8583 109.872 35.2391C110.46 35.6199 110.889 36.16 111.159 36.8592H110.027C109.827 36.4231 109.536 36.0873 109.155 35.8519C108.781 35.6165 108.331 35.4988 107.805 35.4988C107.3 35.4988 106.846 35.6165 106.444 35.8519C106.043 36.0873 105.728 36.4231 105.499 36.8592C105.271 37.2885 105.157 37.7939 105.157 38.3755C105.157 38.9502 105.271 39.4556 105.499 39.8918C105.728 40.321 106.043 40.6534 106.444 40.8888C106.846 41.1242 107.3 41.2419 107.805 41.2419C108.331 41.2419 108.781 41.1276 109.155 40.8992C109.536 40.6638 109.827 40.328 110.027 39.8918H111.159C110.889 40.5841 110.46 41.1207 109.872 41.5015C109.283 41.8754 108.594 42.0623 107.805 42.0623C107.133 42.0623 106.521 41.9065 105.967 41.595C105.42 41.2765 104.987 40.8368 104.669 40.276C104.35 39.7152 104.191 39.0817 104.191 38.3755ZM124.374 34.7614V42H123.429V38.7182H119.742V42H118.797V34.7614H119.742V37.9393H123.429V34.7614H124.374ZM136.498 40.3903H133.341L132.759 42H131.762L134.379 34.8029H135.47L138.077 42H137.08L136.498 40.3903ZM136.228 39.6218L134.919 35.9661L133.611 39.6218H136.228ZM149.904 34.7614V35.5299H147.931V42H146.985V35.5299H145.002V34.7614H149.904Z" fill="white"/>
<path d="M0 12.376H26.8561" stroke="white" stroke-width="3.06926"/>
<path d="M0 41.9573H27L6.5 15" stroke="white" stroke-width="3.06926"/>
<path d="M5 12V26.9655V43" stroke="white" stroke-width="3.06926"/>
</svg>
